<svg version="1.1" id="MASTER" xmlns="http://www.w3.org/2000/svg" xmlns:xlink="http://www.w3.org/1999/xlink" x="0px" y="0px"
	 viewBox="0 0 200 25.8" enable-background="new 0 0 200 25.8" xml:space="preserve">
<g class="three">
	<path fill="#FFFFFF" d="M105.9,15.5h-0.2v6.7h0.2c0.5,0,0.8-0.2,0.8-0.8v-5.1C106.7,15.7,106.4,15.5,105.9,15.5"/>
	<path fill="#FFFFFF" d="M98.6,11.9v13.9h19.1V11.9H98.6z M108.2,21.4c0,1.4-0.7,2.1-2.1,2.1h-1.9v-9.3h1.9c1.4,0,2.1,0.7,2.1,2.1
		V21.4z M112.2,23.5H109v-9.3h3.2v1.3h-1.7V18h1.7v1.3h-1.7V22h1.8v1.5H112.2z"/>
</g>
<g class="four">
	<polygon fill="#FFFFFF" points="184.2,16 185.9,16 185,8.8 	"/>
	<path fill="#FFFFFF" d="M141,7h-0.5c-0.7,0-1,0.3-1,1v10.9c0,0.7,0.3,0.9,1,0.9h0.5c0.6,0,0.9-0.3,0.9-0.9v-11
		C141.9,7.3,141.6,7,141,7"/>
	<path fill="#FFFFFF" d="M168.1,7.2h-1.2v5.6h1.1c0.7,0,1-0.3,1-1V8.1C169,7.5,168.7,7.2,168.1,7.2"/>
	<path fill="#FFFFFF" d="M119.3,25.8H200v-25h-80.7V25.8z M135.3,22.1h-2.7V9.8l-1.8,12.3h-2.7l-1.8-12.5v12.5h-2.4V4.7h4.1v0.1
		l1.6,12.1l1.6-12.2h4L135.3,22.1L135.3,22.1z M144.7,19c0,2.2-1.1,3.3-3.3,3.3H140c-2.2,0-3.3-1.1-3.3-3.3V7.8
		c0-2.2,1.1-3.3,3.3-3.3h1.4c2.2,0,3.3,1.1,3.3,3.3V19z M154.5,22.1h-3l0,0L148.9,11v2.5v8.7h-2.5V4.7h3.2l0,0l2.3,10.1v-2.3V4.7
		h2.5v17.4C154.4,22.1,154.5,22.1,154.5,22.1z M162.9,7.2h-2.4v14.9h-2.8V7.2h-2.4V4.7h7.5L162.9,7.2L162.9,7.2z M171.8,22.1H169
		v-5.9c0-0.7-0.3-1-1-1h-1.1v6.9h-2.8V4.7h4.4c2.2,0,3.3,1.1,3.3,3.3v3.3c0,1.4-0.4,2.2-1.4,2.7c1,0.3,1.4,1,1.4,2.3L171.8,22.1
		L171.8,22.1z M179.5,22.1h-6.1V4.7h1.6l1-2h2.6l-1.2,2h2v2.5h-3.2V12h3.1v2.5h-3.1v5.1h3.3L179.5,22.1L179.5,22.1z M186.7,22.1
		l-0.5-3.7h-2.4l-0.4,3.7h-2.6V22l2.5-17.3h3.6v0.1l2.5,17.3H186.7z M196.5,22.1h-5.7V4.7h2.8v14.9h2.9V22.1z"/>
</g>
<g class="one">
	<path fill="#FFFFFF" d="M0,25.7h21.6V10.1H0V25.7z M11,12.7h3.6v1.5h-1.9V17h1.9v1.5h-1.9v3.1h2v1.5H11V12.7z M6.9,12.7h1.7v9h1.8
		v1.5H6.9V12.7z"/>
</g>
<g class="two">
	<polygon fill="#FFFFFF" points="79.2,15.7 81.2,15.7 80.2,7.7 	"/>
	<path fill="#FFFFFF" d="M38.9,5.8h-0.6c-0.7,0-1.1,0.3-1.1,1.1v12c0,0.7,0.3,1.1,1.1,1.1h0.6c0.7,0,1-0.3,1-1.1v-12
		C40,6.2,39.6,5.8,38.9,5.8"/>
	<path fill="#FFFFFF" d="M59.3,6H58v6.2h1.2c0.8,0,1.1-0.4,1.1-1.1v-4C60.4,6.4,60,6,59.3,6"/>
	<path fill="#FFFFFF" d="M22.9,25.8H97V0H22.9V25.8z M32.5,18.9c0,2.4-1.2,3.6-3.6,3.6h-2.1v-2.7h1.6c0.7,0,1.1-0.3,1.1-1.1V5.8
		h-1.6V3.3h1.6h1.4h1.6V18.9z M43,19c0,2.4-1.2,3.6-3.6,3.6h-1.5c-2.4,0-3.6-1.2-3.6-3.6V6.8c0-2.4,1.2-3.6,3.6-3.6h1.5
		c2.4,0,3.6,1.2,3.6,3.6V19z M53.2,19c0,2.4-1.2,3.6-3.6,3.6h-1.4c-2.4,0-3.6-1.2-3.6-3.6V3.3h3v15.5c0,0.7,0.3,1.1,1.1,1.1h0.5
		c0.7,0,1-0.3,1-1.1V3.3h3V19z M63.4,22.4h-3V16c0-0.8-0.4-1.2-1.2-1.2H58v7.6h-3V3.3h4.8c2.4,0,3.6,1.2,3.6,3.6v3.6
		c0,1.5-0.5,2.4-1.5,2.9c1.1,0.4,1.6,1.1,1.6,2.5L63.4,22.4L63.4,22.4z M74.1,22.4h-3.2l0,0L68,10.1v2.8v9.5h-2.7V3.3h3.5l0,0
		l2.6,11.2v-2.7V3.3h2.7V22.4z M82,22.4l-0.5-4h-2.6l-0.5,4h-2.8l2.7-19.1h3.9l0,0L85,22.4H82z M92.9,22.4h-6.2V3.3h3v16.4h3.2V22.4
		z"/>
</g>
</svg>