<?xml version="1.0" encoding="utf-8"?>
<!-- Generator: Adobe Illustrator 15.0.0, SVG Export Plug-In . SVG Version: 6.00 Build 0)  -->
<!DOCTYPE svg PUBLIC "-//W3C//DTD SVG 1.1//EN" "http://www.w3.org/Graphics/SVG/1.1/DTD/svg11.dtd">
<svg version="1.1" id="Calque_1" xmlns="http://www.w3.org/2000/svg" xmlns:xlink="http://www.w3.org/1999/xlink" x="0px" y="0px"
	 width="464.816px" height="201.568px" viewBox="0 0 464.816 201.568" enable-background="new 0 0 464.816 201.568"
	 xml:space="preserve">
<path fill="#FFFFFF" d="M0,107.084h93.447V39.095H0V107.084z M47.683,50.401h15.605v6.516h-8.443v12.495h8.123v6.519h-8.123V89.26
	h8.575v6.519H47.683V50.401z M30.027,50.401h7.164V89.26h7.605v6.519H30.027V50.401z"/>
<g>
	<path fill="#FFFFFF" d="M128.444,127.766h-0.799v25.958h0.799c2.075,0,2.997-0.941,2.997-3.051v-19.86
		C131.441,128.704,130.519,127.766,128.444,127.766"/>
	<path fill="#FFFFFF" d="M100.205,167.674h74.139v-53.856h-74.139V167.674z M137.173,150.828c0,5.361-2.604,7.966-7.958,7.966
		h-7.307v-36.096h7.307c5.354,0,7.958,2.601,7.958,7.959V150.828z M152.637,158.794h-12.544v-36.096h12.442v5.223h-6.706v9.879
		h6.451v5.223h-6.451v10.549h6.808V158.794z"/>
	<polygon fill="#FFFFFF" points="409.125,167.24 415.294,167.24 412.187,141.948 	"/>
	<path fill="#FFFFFF" d="M257.367,135.415h-1.904c-2.316,0-3.346,1.032-3.346,3.348v38.376c0,2.312,1.029,3.345,3.346,3.345h1.904
		c2.254,0,3.259-1.032,3.259-3.345v-38.376C260.626,136.447,259.621,135.415,257.367,135.415"/>
	<path fill="#FFFFFF" d="M352.668,136.212h-4.302v19.623h3.953c2.454,0,3.598-1.113,3.598-3.516v-12.85
		C355.917,137.246,354.886,136.212,352.668,136.212"/>
	<path fill="#FFFFFF" d="M181.184,201.568h283.632v-87.75H181.184V201.568z M237.325,188.747h-9.554v-43.353l-6.19,43.353h-9.492
		l-6.281-43.966v43.966h-8.425v-61.219h14.305l0.02,0.187l5.609,42.587l5.794-42.773h14.214V188.747z M270.352,177.574
		c0,7.634-3.873,11.504-11.505,11.504h-4.951c-7.633,0-11.505-3.87-11.505-11.504v-39.246c0-7.638,3.872-11.511,11.505-11.511h4.951
		c7.632,0,11.505,3.873,11.505,11.511V177.574z M304.735,188.747h-10.464l-0.039-0.169l-9.019-38.978l0.071,8.711v30.436h-8.773
		v-61.219h11.249l0.038,0.167l8.235,35.59l-0.068-8.183v-27.574h8.77V188.747z M334.525,136.388h-8.329v52.359h-9.731v-52.359
		h-8.328v-8.859h26.389V136.388z M365.73,188.747h-9.726v-20.711c0-2.585-1.1-3.691-3.686-3.691h-3.952v24.402h-9.729v-61.219
		h15.503c7.631,0,11.505,3.871,11.505,11.508v11.461c0,4.831-1.514,7.74-4.886,9.337c3.478,1.143,4.971,3.577,4.971,8.027V188.747z
		 M392.643,188.747h-21.277v-61.219h5.712l3.375-6.984h9.3l-4.371,6.984h7.086v8.859h-11.376v16.759h10.943v8.853h-10.943v17.893
		h11.552V188.747z M418.05,188.747l-1.659-12.849h-8.361l-1.537,12.849h-9.006l0.031-0.249l8.679-60.849h12.665l0.026,0.187
		l8.776,60.911H418.05z M452.482,188.747h-19.975v-61.219h9.727v52.363h10.248V188.747z"/>
	<polygon fill="#FFFFFF" points="336.152,64.921 344.373,64.921 340.233,31.221 	"/>
	<path fill="#FFFFFF" d="M167.224,23.478h-2.502c-3.062,0-4.427,1.365-4.427,4.43v50.274c0,3.058,1.365,4.426,4.427,4.426h2.502
		c2.945,0,4.313-1.41,4.313-4.426V27.908C171.537,24.885,170.169,23.478,167.224,23.478"/>
	<path fill="#FFFFFF" d="M252.765,24.277h-5.681v25.799h5.223c3.252,0,4.768-1.479,4.768-4.655V28.59
		C257.074,25.646,255.703,24.277,252.765,24.277"/>
	<path fill="#FFFFFF" d="M100.205,107.085h310.123V-1H100.205V107.085z M140.499,78.066c0,9.965-5.053,15.018-15.021,15.018h-8.641
		V81.582h6.597c3.061,0,4.429-1.368,4.429-4.426V23.358h-6.661v-10.36h6.661h5.852h6.784V78.066z M184.181,78.746
		c0,9.97-5.057,15.024-15.022,15.024h-6.485c-9.963,0-15.02-5.054-15.02-15.024V27.339c0-9.967,5.057-15.024,15.02-15.024h6.485
		c9.965,0,15.022,5.057,15.022,15.024V78.746z M227.289,78.746c0,9.97-5.055,15.024-15.024,15.024h-5.911
		c-9.968,0-15.024-5.054-15.024-15.024V12.998h12.645V78.18c0,3.06,1.365,4.428,4.426,4.428h1.934c2.941,0,4.312-1.41,4.312-4.428
		V12.998h12.642V78.746z M269.831,93.084h-12.646V66.008c0-3.378-1.506-4.881-4.878-4.881h-5.223v31.957h-12.646V12.998h20.256
		c9.971,0,15.021,5.055,15.021,15.024v15.015c0,6.357-2.007,10.162-6.488,12.237c4.619,1.473,6.603,4.653,6.603,10.509V93.084z
		 M314.792,93.087h-13.617l-0.044-0.181L289.22,41.423l0.096,11.844v39.817h-11.388V12.998h14.634l0.043,0.183l10.894,47.044
		l-0.097-11.163V12.998h11.391V93.087z M347.988,93.087l-2.188-16.89h-11.073l-2.019,16.89h-11.739l11.438-80.2h16.559l0.028,0.202
		l11.528,79.998H347.988z M393.698,93.087h-26.063V12.998h12.642v68.584h13.422V93.087z"/>
</g>
</svg>
