<?xml version="1.0" encoding="utf-8"?>
<!-- Generator: Adobe Illustrator 17.0.2, SVG Export Plug-In . SVG Version: 6.00 Build 0)  -->
<!DOCTYPE svg PUBLIC "-//W3C//DTD SVG 1.1//EN" "http://www.w3.org/Graphics/SVG/1.1/DTD/svg11.dtd">
<svg version="1.1" id="Calque_1" xmlns="http://www.w3.org/2000/svg" xmlns:xlink="http://www.w3.org/1999/xlink" x="0px" y="0px"
	 width="180px" height="40px" viewBox="0 0 180 40" enable-background="new 0 0 180 40" xml:space="preserve">
<g>
	<path fill="#FFFFFF" d="M20,0C8.96,0,0,8.96,0,20s8.96,20,20,20s20-8.96,20-20S31.04,0,20,0z M24.42,16.62l-0.24,3h-3.06v10.4
		h-3.88V19.6h-2.06v-3h2.06v-2c0-0.88,0.02-2.26,0.66-3.1c0.68-0.9,1.6-1.5,3.2-1.5c2.6,0,3.7,0.38,3.7,0.38l-0.52,3.06
		c0,0-0.86-0.24-1.66-0.24s-1.52,0.28-1.52,1.1v2.34h3.32V16.62z"/>
</g>
<g>
	<path fill="#FFFFFF" d="M65.042,0.029c-11.043,0-19.986,8.943-19.986,19.986S53.999,40,65.042,40s19.986-8.943,19.986-19.986
		S76.085,0.029,65.042,0.029z M73.004,16.913c0,0.18,0.02,0.36,0.02,0.54c0,5.422-4.121,11.683-11.683,11.683
		c-2.321,0-4.481-0.68-6.302-1.841c0.32,0.04,0.64,0.06,0.98,0.06c1.921,0,3.701-0.66,5.101-1.76
		c-1.801-0.04-3.321-1.22-3.841-2.861c0.24,0.04,0.5,0.08,0.78,0.08c0.38,0,0.74-0.04,1.08-0.14c-1.881-0.4-3.301-2.061-3.301-4.041
		v-0.06c0.56,0.3,1.18,0.5,1.861,0.52c-1.1-0.74-1.821-2.001-1.821-3.421c0-0.76,0.2-1.46,0.56-2.061
		c2.021,2.481,5.061,4.121,8.462,4.301c-0.08-0.3-0.1-0.62-0.1-0.94c0-2.261,1.841-4.101,4.101-4.101c1.18,0,2.241,0.5,3.001,1.3
		c0.94-0.18,1.821-0.52,2.601-1c-0.3,0.96-0.96,1.76-1.801,2.281c0.84-0.1,1.62-0.32,2.361-0.64
		C74.504,15.593,73.804,16.333,73.004,16.913z"/>
</g>
<g>
	<path fill="#FFFFFF" d="M108.601,22.633c-0.459-0.16-0.978-0.24-1.537-0.24c-2.375-0.04-4.491,1.437-4.491,3.193
		c0,1.796,1.716,3.313,4.091,3.313c3.333,0,4.491-1.417,4.491-3.213c0-0.22-0.02-0.439-0.08-0.639
		C110.817,24.03,109.898,23.511,108.601,22.633z"/>
	<path fill="#FFFFFF" d="M109.659,14.609c-0.279-2.096-1.796-3.772-3.373-3.812c-1.597-0.04-2.654,1.557-2.395,3.652
		c0.279,2.096,1.796,3.832,3.373,3.872C108.881,18.362,109.938,16.705,109.659,14.609z"/>
	<path fill="#FFFFFF" d="M109.958,0C98.941,0,90,8.941,90,19.958s8.941,19.958,19.958,19.958s19.958-8.941,19.958-19.958
		S120.975,0,109.958,0z M106.665,29.878c-3.433,0-6.327-1.397-6.327-3.632c0-2.275,2.634-4.451,6.067-4.451
		c0.379,0,0.718-0.02,1.078-0.02c-0.479-0.459-0.838-1.018-0.838-1.716c0-0.399,0.14-0.798,0.319-1.158
		c-0.18,0.02-0.379,0.02-0.579,0.02c-2.814,0-4.71-2.016-4.71-4.491c0-2.435,2.615-4.531,5.369-4.531h6.187l-1.377,0.998h-1.956
		c1.297,0.499,1.996,2.016,1.996,3.573c0,1.297-0.718,2.435-1.736,3.233c-0.998,0.778-1.178,1.098-1.178,1.776
		c0,0.559,1.058,1.537,1.617,1.916c1.637,1.158,2.156,2.235,2.156,4.012C112.752,27.662,110.577,29.878,106.665,29.878z
		 M119.578,20.437h-2.415v2.415h-1.936v-2.415h-2.415v-1.936h2.415v-2.415h1.936v2.415h2.415V20.437z"/>
</g>
<path fill="#FFFFFF" d="M155.083,0c-10.994,0-19.917,8.923-19.917,19.917s8.923,19.917,19.917,19.917
	c10.994,0,19.917-8.923,19.917-19.917S166.077,0,155.083,0z M146.882,30.964c-1.642,0-2.975-1.324-2.975-2.965
	c0-1.632,1.334-2.971,2.975-2.971c1.648,0,2.98,1.339,2.98,2.971C149.861,29.64,148.529,30.964,146.882,30.964z M154.361,30.99
	c0-2.8-1.089-5.435-3.062-7.407c-1.976-1.976-4.599-3.067-7.389-3.067v-4.284c8.134,0,14.754,6.62,14.754,14.759H154.361z
	 M161.963,30.99c0-9.961-8.099-18.068-18.048-18.068V8.636c12.32,0,22.346,10.032,22.346,22.354H161.963z"/>
</svg>
