<?xml version="1.0" encoding="utf-8"?>
<!-- Generator: Adobe Illustrator 18.0.0, SVG Export Plug-In . SVG Version: 6.00 Build 0)  -->
<!DOCTYPE svg PUBLIC "-//W3C//DTD SVG 1.1//EN" "http://www.w3.org/Graphics/SVG/1.1/DTD/svg11.dtd">
<svg version="1.1" id="Calque_1" xmlns="http://www.w3.org/2000/svg" xmlns:xlink="http://www.w3.org/1999/xlink" x="0px" y="0px"
	 viewBox="0 0 200 200" enable-background="new 0 0 200 200" xml:space="preserve">
<path fill-rule="evenodd" clip-rule="evenodd" fill="#FFFFFF" d="M192.7,77.8c-3.2-3.2-10.2-7.4-18.6-7.4c-8.9,0.4-11.4,2-17.8,6.7
	c-13.6-7.8-30.9-12.6-49.9-13.5c-0.2-5.1,0-30.3,21.1-27.5c5.7,0.1,11.8,3,14.7,4.7c0,0.4-0.1,0.7-0.1,1.1
	c0,11.8,9.9,21.4,22.2,21.4c12.3,0,22.2-9.6,22.2-21.4c0-11.8-9.9-21.4-22.2-21.4c-8.5,0-15.9,4.7-19.6,11.5
	c-1.7-0.9-7.9-3.9-17.2-5.1c-30.2-3.5-31.2,29.5-31.1,36.4C76.3,63.8,58,69,43.7,77.2c-0.4-0.3-7.2-6.8-17.7-6.8
	c-8.4,0.6-14.2,3.2-18.8,7.4c-4.6,5-7.5,10.6-6.8,19.2c1.9,11.4,12.2,16.7,13.8,17.4c-0.4,2.3-0.7,4.6-0.7,6.9
	c0,32.1,38.8,58.2,86.8,58.2c47.9,0,86.8-26.1,86.8-58.2c0-2.5-0.3-4.9-0.7-7.2c0.1,0.1,0.2,0.3,0.2,0.3c2.7-1.6,12.5-7.9,13.4-17.4
	C200.3,86.2,196.8,81.9,192.7,77.8z M183.5,105c-4.2-8.7-10.6-16.3-18.4-22.4c2.7-2.2,5.9-3,10.1-2.8c5.4,0.3,14.1,4.8,14.2,13.2
	C189.4,100.1,186.1,103.4,183.5,105z M100.5,169.8c-41.9,0-75.8-21.8-75.8-48.6c0-26.8,34-48.6,75.8-48.6
	c41.9,0,75.8,21.8,75.8,48.6C176.3,148,142.4,169.8,100.5,169.8z M68.9,100c-6.6,0-12,5.2-12,11.6c0,6.4,5.4,11.6,12,11.6
	c6.6,0,12-5.2,12-11.6C80.9,105.2,75.5,100,68.9,100z M71.5,139.9c-6.1-4.5-11.2,2.4-6.9,6.6c15.8,13.9,59.6,13.5,70.6,0.3
	c4.3-4.2-0.3-11.7-6.1-7.1C118.9,149.6,83.1,151.1,71.5,139.9z M131.2,100c-6.6,0-12,5.2-12,11.6c0,6.4,5.4,11.6,12,11.6
	c6.6,0,12-5.2,12-11.6C143.2,105.2,137.8,100,131.2,100z M16.9,105c-2.4-1.3-6-4-5.9-12.1c0-7.2,8.5-13,13.8-13
	c3.7-0.1,8.6,0.8,10.3,2.8C30.7,85.1,19.5,96.9,16.9,105z M164.2,29.4c7,0,12.7,5.3,12.7,11.9c0,6.6-5.7,11.9-12.7,11.9
	c-7,0-12.7-5.3-12.7-11.9C151.5,34.7,157.2,29.4,164.2,29.4z"/>
</svg>
