<?xml version="1.0" encoding="utf-8"?>
<!-- Generator: Adobe Illustrator 18.0.0, SVG Export Plug-In . SVG Version: 6.00 Build 0)  -->
<!DOCTYPE svg PUBLIC "-//W3C//DTD SVG 1.1//EN" "http://www.w3.org/Graphics/SVG/1.1/DTD/svg11.dtd">
<svg version="1.1" id="Calque_1" xmlns="http://www.w3.org/2000/svg" xmlns:xlink="http://www.w3.org/1999/xlink" x="0px" y="0px"
	 viewBox="0 0 200 200" enable-background="new 0 0 200 200" xml:space="preserve">
<path fill="#FFFFFF" d="M100,0C44.7,0,0,44.8,0,100c0,40.9,24.6,76.1,59.9,91.5c-0.3-7-0.1-15.3,1.7-23c1.9-8.2,12.8-54.4,12.8-54.4
	s-3.2-6.4-3.2-15.8c0-14.8,8.6-25.9,19.3-25.9c9.1,0,13.5,6.9,13.5,15c0,9.2-5.9,22.8-8.8,35.5c-2.5,10.6,5.4,19.3,15.8,19.3
	c19,0,31.7-24.3,31.7-53.1c0-21.9-14.7-38.3-41.6-38.3c-30.3,0-49.2,22.6-49.2,47.9c0,8.7,2.5,14.8,6.6,19.6c1.8,2.2,2.1,3,1.4,5.5
	c-0.5,1.8-1.6,6.3-2,8.1c-0.7,2.5-2.7,3.4-5.1,2.5c-13.9-5.6-20.5-21-20.5-38.2c0-28.4,23.9-62.4,71.5-62.4
	c38.2,0,63.3,27.6,63.3,57.3c0,39.2-21.8,68.5-53.9,68.5c-10.8,0-20.9-5.8-24.4-12.5c0,0-5.8,23-7.1,27.5
	c-2.1,7.7-6.3,15.4-10.1,21.4c9,2.6,18.5,4.1,28.4,4.1c55.3,0,100-44.8,100-100S155.3,0,100,0z"/>
</svg>
