<?xml version="1.0" encoding="utf-8"?>
<!-- Generator: Adobe Illustrator 18.0.0, SVG Export Plug-In . SVG Version: 6.00 Build 0)  -->
<!DOCTYPE svg PUBLIC "-//W3C//DTD SVG 1.1//EN" "http://www.w3.org/Graphics/SVG/1.1/DTD/svg11.dtd">
<svg version="1.1" id="Calque_1" xmlns="http://www.w3.org/2000/svg" xmlns:xlink="http://www.w3.org/1999/xlink" x="0px" y="0px"
	 viewBox="0 0 200 200" enable-background="new 0 0 200 200" xml:space="preserve">
<path fill-rule="evenodd" clip-rule="evenodd" fill="#FFFFFF" d="M100,199.2c-54.7,0-99-44.4-99-99.2C1,45.2,45.3,0.8,100,0.8
	s99,44.4,99,99.2C199,154.8,154.7,199.2,100,199.2z M59,44.2c-6.4,0-11.6,5.2-11.6,11.6c0,6.4,5.2,11.6,11.6,11.6
	s11.6-5.2,11.6-11.6C70.6,49.4,65.4,44.2,59,44.2z M70.6,79.9H47.4v65.1h23.2V79.9z M152.6,102.9c0-11.7-6.7-23.1-24.7-23.1
	c-9.1,0-16.2,0.6-21.7,7.3v-7.3H83v65.1h23.2v-42.8l0,0c0,0-0.4-7.5,11.4-7.5c12.4,0,11.8,6.7,11.8,16.1c0,9.4,0,34.2,0,34.2h23.2
	C152.6,144.9,152.6,114.6,152.6,102.9z"/>
</svg>
